<svg version="1.1" xmlns="http://www.w3.org/2000/svg" style="display: block;" viewBox="0 0 2048 1917" width="624" height="584" preserveAspectRatio="none">
<defs>
	<linearGradient id="Gradient1" gradientUnits="userSpaceOnUse" x1="1315.75" y1="667.348" x2="1448.43" y2="821.305">
		<stop class="stop0" offset="0" stop-opacity="1" stop-color="rgb(177,137,114)"/>
		<stop class="stop1" offset="1" stop-opacity="1" stop-color="rgb(98,160,174)"/>
	</linearGradient>
	<linearGradient id="Gradient2" gradientUnits="userSpaceOnUse" x1="1424.24" y1="470.866" x2="1571.75" y2="585.677">
		<stop class="stop0" offset="0" stop-opacity="1" stop-color="rgb(197,127,95)"/>
		<stop class="stop1" offset="1" stop-opacity="1" stop-color="rgb(126,152,152)"/>
	</linearGradient>
	<linearGradient id="Gradient3" gradientUnits="userSpaceOnUse" x1="1025.27" y1="957.493" x2="1109.21" y2="1035.15">
		<stop class="stop0" offset="0" stop-opacity="1" stop-color="rgb(211,121,83)"/>
		<stop class="stop1" offset="1" stop-opacity="1" stop-color="rgb(84,167,183)"/>
	</linearGradient>
	<linearGradient id="Gradient4" gradientUnits="userSpaceOnUse" x1="450.405" y1="1414.64" x2="611.607" y2="1509.99">
		<stop class="stop0" offset="0" stop-opacity="1" stop-color="rgb(201,132,102)"/>
		<stop class="stop1" offset="1" stop-opacity="1" stop-color="rgb(126,151,151)"/>
	</linearGradient>
	<linearGradient id="Gradient5" gradientUnits="userSpaceOnUse" x1="738.447" y1="1345.31" x2="942.082" y2="1556.77">
		<stop class="stop0" offset="0" stop-opacity="1" stop-color="rgb(121,156,160)"/>
		<stop class="stop1" offset="1" stop-opacity="1" stop-color="rgb(0,205,245)"/>
	</linearGradient>
	<linearGradient id="Gradient6" gradientUnits="userSpaceOnUse" x1="694.02" y1="1163.32" x2="821.56" y2="1272.2">
		<stop class="stop0" offset="0" stop-opacity="1" stop-color="rgb(196,126,96)"/>
		<stop class="stop1" offset="1" stop-opacity="1" stop-color="rgb(127,155,155)"/>
	</linearGradient>
</defs>
<path transform="translate(0,0)" fill="rgb(21,24,30)" d="M 0 0 L 2048 0 L 2048 1917 L 0 1917 L 0 0 z"/>
<path transform="translate(0,0)" fill="rgb(31,41,52)" d="M 518.174 93.4076 C 543.09 91.6659 573.075 92.9966 598.46 92.9944 L 748.392 93.0933 L 1210.21 93.2232 L 1450.35 92.8142 C 1502.69 92.7757 1569.35 90.0396 1619.64 99.6622 C 1651.5 105.757 1715.21 131.021 1743.84 148.738 C 1758.14 157.59 1779.13 177.627 1791.88 188.424 C 1812.41 205.819 1846.06 251.023 1859.31 274.616 C 1879.27 310.152 1902.77 379.777 1902.88 420.392 C 1902.98 455.667 1905.68 494.626 1905.55 530.004 C 1905.48 551.798 1903.68 575.475 1903.86 598.677 L 1904.48 1101.37 L 1904.13 1356.61 C 1904.19 1383.39 1904.09 1410.18 1903.82 1436.97 C 1903.79 1471.09 1904.56 1496.34 1899 1530.35 C 1873.11 1688.78 1728.9 1817.73 1567.25 1821.86 L 1118.33 1822.94 C 1093.7 1823 1068.82 1824.58 1044.17 1824.77 C 955.707 1825.3 867.237 1825.06 778.775 1824.05 C 762.184 1823.88 744.571 1824.72 727.756 1824.79 C 671.828 1825.2 615.898 1824.57 559.994 1822.88 C 530.043 1821.69 511.879 1822.89 481.437 1817.4 C 452.809 1814.01 429.278 1804.3 402.856 1794.2 C 378.375 1784.84 369.15 1777.66 347.558 1763.48 C 326.086 1749.38 309.138 1739.41 291.826 1719.19 C 284.855 1711.05 273.607 1703.31 266.77 1694.57 C 245.188 1667.1 222.06 1629.43 209.226 1597.07 C 200.23 1574.38 188.769 1526.76 186.372 1503.07 C 181.181 1451.77 184.451 1399.56 184.014 1348.1 L 183.234 1101.03 C 183.477 1053.13 185.053 1005.16 184.83 957 L 184.588 638.009 L 183.756 533.488 C 182.971 485.993 181.141 449.146 187.87 401.279 C 196.822 337.587 226.186 269.571 267.122 219.952 C 288.191 198.944 313.308 169.79 338.904 154.531 C 391.078 123.429 457.979 97.5376 518.174 93.4076 z"/>
<path transform="translate(0,0)" fill="rgb(38,188,215)" d="M 1383.83 854.06 C 1389.42 858.37 1392.25 860.02 1397.64 863.543 C 1404.26 868.527 1423.9 873.065 1426.2 881.414 C 1428.34 889.169 1426.76 898.656 1432.01 905.353 C 1440.02 950.283 1451.6 984.625 1490.38 1013.4 C 1502.29 1022.23 1525.12 1031.96 1539.63 1035.18 L 1539.64 1187.91 C 1519.33 1195.54 1499.49 1205.5 1479.38 1213.38 C 1437.07 1229.95 1395.27 1246.66 1353.02 1263.55 C 1315.01 1278.74 1273.41 1291.5 1237.41 1310.68 C 1226.55 1316.46 1211.02 1333.49 1206.37 1344.9 C 1196.52 1369.12 1196.03 1410.33 1194.76 1436.84 L 1490.53 1436.82 C 1543.5 1436.77 1603 1435.6 1655.46 1436.9 C 1656.57 1459.59 1656.3 1481.37 1655.9 1504.08 L 1125.6 1504.23 C 1125.74 1478.91 1126.23 1453.59 1127.04 1428.28 C 1128.69 1373.74 1130.92 1317.82 1172.54 1277.14 C 1213.07 1237.52 1283.19 1217.11 1336.23 1197.21 C 1366.37 1185.84 1396.29 1173.9 1425.97 1161.41 C 1439.14 1155.9 1460.19 1148.6 1471.55 1141.71 C 1471.69 1125.08 1472.73 1097.5 1471.46 1081.59 L 1470.51 1080.77 C 1460.9 1072.55 1449.12 1066.68 1439.31 1058.83 C 1411.06 1036.22 1383.47 996.257 1375.23 960.553 C 1376.08 951.685 1369.96 927.085 1364.88 919.005 C 1364.35 918.153 1353.41 910.757 1351.46 909.179 C 1347.52 902.079 1359.95 872.139 1365.4 866.262 C 1367.98 863.477 1380.19 856.254 1383.83 854.06 z"/>
<path transform="translate(0,0)" fill="rgb(248,111,56)" d="M 396.186 437.069 C 449.857 411.863 530.326 407.296 587.613 421.422 C 692.318 447.24 770.899 517.659 783.436 629.491 C 784.702 641.456 785.495 653.467 785.814 665.494 C 786.292 685.407 784.544 716.188 789.529 735.568 C 790.762 740.361 803.345 756.159 806.697 761.9 C 831.214 803.89 825.225 862.093 790.203 896.552 C 779.819 906.863 767.416 913.023 758.998 922.211 C 755.68 925.833 751.356 950.937 749.401 957.47 C 732.962 1012.41 701.392 1050.74 652.742 1079.34 C 653.15 1093.69 653.891 1127.03 652.626 1140.28 C 654.849 1143.59 677.983 1151.65 683.445 1153.87 C 726.082 1171.44 768.986 1188.35 812.141 1204.6 C 816.586 1206.29 851.076 1218.9 853.625 1220.48 C 856.955 1223.97 857.366 1224.05 861.787 1226.25 C 848.49 1236.96 834.335 1248.01 821.612 1259.43 C 817.261 1263.33 813.483 1273.45 808.938 1275.93 C 766.187 1259.68 723.552 1243.13 681.035 1226.27 C 650.24 1214.21 615.08 1200.83 585.425 1186.73 C 584.676 1175.88 584.631 1160.13 584.979 1149.31 C 584.308 1143.63 584.705 1120.92 584.656 1113.79 C 584.539 1087.79 584.274 1061.8 583.859 1035.82 C 598.883 1030.38 617.911 1021.37 630.701 1012.16 C 680.461 976.32 686.796 929.996 696.633 874.318 C 697.883 873.88 699.131 873.433 700.375 872.979 C 718.523 866.338 742.33 854.755 750.463 835.82 C 759.687 814.345 747.956 788.226 729.526 775.631 C 725.04 772.565 721.994 771.056 716.883 769.056 L 717.09 704.922 C 717.18 665.286 718.703 631.053 704.196 592.971 C 675.797 518.424 592.997 482.515 517.578 481.809 C 481.959 481.476 449.758 487.788 416.601 500.249 C 413.969 488.419 401.051 447.791 396.186 437.069 z"/>
<path transform="translate(0,0)" fill="url(#Gradient6)" d="M 652.626 1140.28 C 654.849 1143.59 677.983 1151.65 683.445 1153.87 C 726.082 1171.44 768.986 1188.35 812.141 1204.6 C 816.586 1206.29 851.076 1218.9 853.625 1220.48 C 856.955 1223.97 857.366 1224.05 861.787 1226.25 C 848.49 1236.96 834.335 1248.01 821.612 1259.43 C 817.261 1263.33 813.483 1273.45 808.938 1275.93 C 766.187 1259.68 723.552 1243.13 681.035 1226.27 C 650.24 1214.21 615.08 1200.83 585.425 1186.73 C 584.676 1175.88 584.631 1160.13 584.979 1149.31 C 587.751 1155.51 587.345 1177.85 587.012 1184.92 C 608.234 1195.76 635.026 1205.26 657.189 1214.89 C 659.9 1216.07 660.948 1215.61 663.055 1214.65 C 666.192 1207.82 678.782 1200.95 684.699 1190.86 C 688.901 1183.69 693.121 1165.52 695.569 1163.03 L 695.398 1161.37 C 686.847 1154.91 658.558 1148.4 651.015 1144.79 C 651.09 1142.53 651.358 1142.15 652.626 1140.28 z"/>
<path transform="translate(0,0)" fill="url(#Gradient5)" d="M 853.625 1220.48 C 861.26 1223.32 873.2 1227.69 880.236 1231.39 C 888.916 1233.53 897.717 1238.55 905.761 1242.31 C 949.46 1262.75 982.917 1299.47 993.23 1347.33 C 998.893 1373.62 1000.05 1400.9 1001.08 1427.86 C 1002.14 1453.24 1002.8 1478.63 1003.06 1504.03 L 804.977 1504.13 C 777.988 1504.11 735.142 1505.5 709.252 1503.96 C 687.925 1504.94 660.099 1504.14 638.073 1504.11 L 504.702 1504.08 C 483.858 1504.11 455.056 1503.39 434.92 1504.85 C 434.382 1482.24 434.132 1459.63 434.169 1437.02 C 519.101 1436.89 606.671 1435.64 691.414 1437.08 C 707.354 1435.55 744.555 1437.13 761.986 1436.81 C 818.769 1435.78 877.365 1437.92 934.081 1436.4 C 932.565 1411.09 931.882 1371.43 922.556 1349.13 C 905.498 1308.35 864.806 1298.06 828.261 1283.21 C 822.227 1281.24 814.971 1278.23 808.938 1275.93 C 813.483 1273.45 817.261 1263.33 821.612 1259.43 C 834.335 1248.01 848.49 1236.96 861.787 1226.25 C 857.366 1224.05 856.955 1223.97 853.625 1220.48 z"/>
<path transform="translate(0,0)" fill="url(#Gradient4)" d="M 434.169 1437.02 C 519.101 1436.89 606.671 1435.64 691.414 1437.08 C 681.281 1439.95 657.759 1435.92 652.691 1438.91 L 653.319 1440.91 C 645.724 1450.47 610.098 1493.66 609.526 1501.2 C 640.396 1503.65 678.241 1499.22 709.252 1503.96 C 687.925 1504.94 660.099 1504.14 638.073 1504.11 L 504.702 1504.08 C 483.858 1504.11 455.056 1503.39 434.92 1504.85 C 434.382 1482.24 434.132 1459.63 434.169 1437.02 z"/>
<path transform="translate(0,0)" fill="rgb(126,152,149)" d="M 853.625 1220.48 C 861.26 1223.32 873.2 1227.69 880.236 1231.39 C 874.686 1232.38 870.212 1229.42 865.081 1226.8 C 855.189 1243.71 822.676 1257.51 816.635 1276.53 C 822.146 1278.82 825.136 1278.98 828.261 1283.21 C 822.227 1281.24 814.971 1278.23 808.938 1275.93 C 813.483 1273.45 817.261 1263.33 821.612 1259.43 C 834.335 1248.01 848.49 1236.96 861.787 1226.25 C 857.366 1224.05 856.955 1223.97 853.625 1220.48 z"/>
<path transform="translate(0,0)" fill="url(#Gradient3)" d="M 943.748 827.228 C 973.644 856.185 1002.38 886.884 1032.69 915.525 C 1037.22 919.81 1041.98 924.648 1046.11 929.328 L 1054.31 936.331 C 1070.15 921.306 1085.51 906.713 1100.97 891.306 C 1121.31 871.022 1144.8 844.548 1167.54 827.364 C 1180.5 842.562 1199.17 859.76 1213.49 874.444 C 1199.97 890.781 1182.22 907.309 1166.96 922.299 C 1145.63 943.1 1124.54 964.152 1103.71 985.452 C 1116.08 998.779 1140.38 1020.93 1150.07 1032.79 C 1156.17 1037.46 1168.81 1050.94 1174.71 1056.91 C 1187.41 1069.9 1200.4 1082.61 1213.66 1095.03 C 1198.87 1111.35 1182.11 1126.68 1166.85 1142.78 C 1155.36 1130.82 1143.59 1119.15 1131.52 1107.77 C 1124.44 1101.01 1112.81 1090.5 1106.93 1083.15 C 1100.98 1079.94 1064.24 1040.17 1056.49 1032.59 C 1047.79 1039.88 1034.44 1054.01 1025.62 1062.45 C 997.922 1089.15 970.426 1116.07 943.138 1143.2 C 930.885 1128.07 910.732 1108.88 896.614 1094.71 C 906.444 1082.71 922.631 1068.15 934.069 1056.84 L 1006.2 985.672 C 1005.78 983.012 1004.09 981.693 1002.19 979.213 C 993.568 970.016 982.592 960.266 973.376 951.086 L 896.407 874.721 C 908.786 860.062 929.554 841.233 943.748 827.228 z"/>
<path transform="translate(0,0)" fill="rgb(248,111,56)" d="M 943.748 827.228 C 973.644 856.185 1002.38 886.884 1032.69 915.525 C 1037.22 919.81 1041.98 924.648 1046.11 929.328 C 1046.76 930.73 1048.74 934.809 1048.8 936.056 C 1048.99 939.978 1048.45 948.728 1051.3 951.428 C 1054.62 948.086 1051.66 943.936 1055.4 940.647 C 1053.78 979.244 1038.9 983.318 1005.45 989.845 C 1010.37 986.389 1011.5 985.472 1017.43 983.476 L 1018.72 981.87 C 1016.94 979.473 1016.88 978.846 1014.04 978.006 C 1008.37 979.721 1007.52 981.361 1002.19 979.213 C 993.568 970.016 982.592 960.266 973.376 951.086 L 896.407 874.721 C 908.786 860.062 929.554 841.233 943.748 827.228 z"/>
<path transform="translate(0,0)" fill="rgb(38,188,215)" d="M 1085.28 1058.14 C 1092.53 1051.34 1101.7 1027.32 1115.63 1029.46 C 1119.13 1027.77 1125.55 1024.94 1127.31 1021.72 L 1125.86 1019.46 C 1127.65 1016.62 1126.53 1017.32 1129.02 1015.94 C 1137.28 1020.46 1141.09 1029.92 1150.07 1032.79 C 1156.17 1037.46 1168.81 1050.94 1174.71 1056.91 C 1187.41 1069.9 1200.4 1082.61 1213.66 1095.03 C 1198.87 1111.35 1182.11 1126.68 1166.85 1142.78 C 1155.36 1130.82 1143.59 1119.15 1131.52 1107.77 C 1124.44 1101.01 1112.81 1090.5 1106.93 1083.15 L 1107.45 1081.1 C 1101.62 1073.93 1092.07 1065.77 1085.28 1058.14 z"/>
<path transform="translate(0,0)" fill="url(#Gradient2)" d="M 1344.56 620.839 C 1370.5 472.192 1503.45 401.511 1645.43 415.513 C 1651.42 416.103 1657.41 416.913 1663.38 417.654 C 1662.03 436.18 1659.74 468.065 1655.65 485.114 C 1611.8 477.433 1566.71 481.461 1524.92 496.791 C 1480.32 512.917 1443.92 546.062 1423.71 588.966 L 1422.44 585.478 C 1412.13 584.092 1401.22 603.38 1396.4 611.111 C 1388.19 624.299 1375.33 638.588 1359.7 642.52 C 1355.36 643.507 1347.63 643.534 1342.92 643.629 C 1344.51 635.302 1345.59 629.339 1344.56 620.839 z"/>
<path transform="translate(0,0)" fill="url(#Gradient1)" d="M 1342.92 643.629 C 1347.63 643.534 1355.36 643.507 1359.7 642.52 C 1375.33 638.588 1388.19 624.299 1396.4 611.111 C 1401.22 603.38 1412.13 584.092 1422.44 585.478 L 1423.71 588.966 C 1408.3 625.213 1408.91 655.004 1408.5 693.269 C 1408.34 718.879 1408 744.488 1407.45 770.092 C 1381.99 781.361 1362.07 808.744 1375.1 837.435 C 1382.97 854.772 1403.12 865.915 1420.53 871.754 C 1422.62 872.457 1424.73 873.118 1426.86 873.735 C 1428.56 883.971 1430.63 895.158 1432.01 905.353 C 1426.76 898.656 1428.34 889.169 1426.2 881.414 C 1423.9 873.065 1404.26 868.527 1397.64 863.543 C 1392.25 860.02 1389.42 858.37 1383.83 854.06 C 1380.19 856.254 1367.98 863.477 1365.4 866.262 C 1359.95 872.139 1347.52 902.079 1351.46 909.179 C 1353.41 910.757 1364.35 918.153 1364.88 919.005 C 1369.96 927.085 1376.08 951.685 1375.23 960.553 C 1365.77 935.662 1374.65 926.722 1349.16 910.15 C 1302.7 879.949 1291.77 806.379 1320.29 760.672 C 1325.53 752.274 1333.54 743.139 1339.64 734.932 C 1341.78 693.082 1335.99 666.213 1344.56 620.839 C 1345.59 629.339 1344.51 635.302 1342.92 643.629 z"/>
</svg>